
<svg width="800px" height="800px" viewBox="0 0 800 800">
  <defs>
    <path d="M800 0L800 0L800 800L0 800L0 0L800 0Z" id="path_1" />
    <path d="M436.223 712.923L457.737 725.657L436.223 712.923L436.223 712.923ZM454.293 682.393L432.777 669.66L454.293 682.393L454.293 682.393ZM345.707 682.393L324.193 695.13L324.193 695.13L345.707 682.393L345.707 682.393ZM363.777 712.923L385.29 700.19L363.777 712.923L363.777 712.923ZM41.6667 350C41.6667 363.807 52.8597 375 66.6667 375C80.4737 375 91.6667 363.807 91.6667 350L41.6667 350L41.6667 350ZM102.45 520.88C97.1667 508.123 82.5423 502.067 69.7863 507.35C57.0303 512.633 50.9727 527.257 56.2563 540.013L102.45 520.88L102.45 520.88ZM259.653 633.05L259.222 658.043L259.653 633.05L259.653 633.05ZM169.553 620.647L159.986 643.743L159.986 643.743L169.553 620.647L169.553 620.647ZM720.647 530.447L743.743 540.013L743.743 540.013L720.647 530.447L720.647 530.447ZM540.347 633.05L539.917 608.053L540.347 633.05L540.347 633.05ZM630.447 620.647L640.013 643.743L640.013 643.743L630.447 620.647L630.447 620.647ZM653.75 91.2267L640.687 112.543L653.75 91.2267L653.75 91.2267ZM708.773 146.25L730.09 133.188L730.09 133.188L708.773 146.25L708.773 146.25ZM146.25 91.2266L133.188 69.9106L133.188 69.9106L146.25 91.2266L146.25 91.2266ZM91.2266 146.25L69.9106 133.188L69.9106 133.188L91.2266 146.25L91.2266 146.25ZM313.426 640.327L325.995 618.717L325.995 618.717L313.426 640.327L313.426 640.327ZM457.737 725.657L475.807 695.13L432.777 669.66L414.707 700.19L457.737 725.657L457.737 725.657ZM324.193 695.13L342.263 725.657L385.29 700.19L367.22 669.66L324.193 695.13L324.193 695.13ZM414.707 700.19C408.283 711.043 391.717 711.043 385.29 700.19L342.263 725.657C368.05 769.223 431.95 769.223 457.737 725.657L414.707 700.19L414.707 700.19ZM350 91.6666L450 91.6666L450 41.6666L350 41.6666L350 91.6666L350 91.6666ZM708.333 350L708.333 383.333L758.333 383.333L758.333 350L708.333 350L708.333 350ZM260.083 608.053C218.235 607.33 196.308 604.67 179.12 597.55L159.986 643.743C186.818 654.857 217.379 657.323 259.222 658.043L260.083 608.053L260.083 608.053ZM56.2563 540.013C75.7093 586.977 113.022 624.29 159.986 643.743L179.12 597.55C144.408 583.17 116.829 555.593 102.45 520.88L56.2563 540.013L56.2563 540.013ZM708.333 383.333C708.333 422.503 708.32 450.63 706.807 472.823C705.307 494.793 702.42 509.12 697.55 520.88L743.743 540.013C751.56 521.147 755.017 500.743 756.69 476.227C758.347 451.937 758.333 421.82 758.333 383.333L708.333 383.333L708.333 383.333ZM540.777 658.043C582.62 657.323 613.183 654.857 640.013 643.743L620.88 597.55C603.693 604.67 581.763 607.33 539.917 608.053L540.777 658.043L540.777 658.043ZM697.55 520.88C683.17 555.593 655.593 583.17 620.88 597.55L640.013 643.743C686.977 624.29 724.29 586.977 743.743 540.013L697.55 520.88L697.55 520.88ZM450 91.6666C505.04 91.6666 544.567 91.693 575.397 94.6243C605.857 97.5203 625.237 103.074 640.687 112.543L666.813 69.9106C642.183 54.819 614.247 48.093 580.13 44.849C546.383 41.6403 504.073 41.6666 450 41.6666L450 91.6666L450 91.6666ZM758.333 350C758.333 295.927 758.36 253.617 755.15 219.87C751.907 185.752 745.18 157.815 730.09 133.188L687.457 159.313C696.927 174.764 702.48 194.145 705.377 224.603C708.307 255.433 708.333 294.959 708.333 350L758.333 350L758.333 350ZM640.687 112.543C659.75 124.224 675.777 140.251 687.457 159.313L730.09 133.188C714.287 107.398 692.603 85.7146 666.813 69.9106L640.687 112.543L640.687 112.543ZM350 41.6666C295.927 41.6666 253.617 41.6403 219.87 44.849C185.752 48.093 157.815 54.819 133.188 69.9106L159.313 112.543C174.764 103.074 194.145 97.5203 224.603 94.6243C255.433 91.693 294.959 91.6666 350 91.6666L350 41.6666L350 41.6666ZM91.6666 350C91.6666 294.959 91.693 255.433 94.6243 224.603C97.5203 194.145 103.074 174.764 112.543 159.313L69.9106 133.188C54.819 157.815 48.093 185.752 44.849 219.87C41.6403 253.617 41.6666 295.927 41.6666 350L91.6666 350L91.6666 350ZM133.188 69.9106C107.398 85.7146 85.7146 107.398 69.9106 133.188L112.543 159.313C124.224 140.251 140.251 124.224 159.313 112.543L133.188 69.9106L133.188 69.9106ZM367.22 669.66C360.453 658.227 354.513 648.137 348.737 640.21C342.65 631.863 335.673 624.347 325.995 618.717L300.857 661.94C302.438 662.857 304.591 664.533 308.328 669.66C312.374 675.213 316.945 682.883 324.193 695.13L367.22 669.66L367.22 669.66ZM259.222 658.043C273.858 658.297 283.129 658.483 290.196 659.263C296.8 659.997 299.359 661.067 300.857 661.94L325.995 618.717C316.237 613.04 306.082 610.717 295.699 609.567C285.78 608.47 273.792 608.29 260.083 608.053L259.222 658.043L259.222 658.043ZM475.807 695.13C483.053 682.883 487.623 675.213 491.67 669.66C495.407 664.533 497.56 662.857 499.14 661.94L474.003 618.717C464.327 624.347 457.347 631.863 451.263 640.21C445.487 648.137 439.547 658.227 432.777 669.66L475.807 695.13L475.807 695.13ZM539.917 608.053C526.207 608.29 514.22 608.47 504.3 609.567C493.917 610.717 483.763 613.04 474.003 618.717L499.14 661.94C500.64 661.067 503.2 659.997 509.803 659.263C516.87 658.483 526.14 658.297 540.777 658.043L539.917 608.053L539.917 608.053Z" id="path_2" />
    <clipPath id="clip_1">
      <use xlink:href="#path_1" clip-rule="evenodd" fill-rule="evenodd" />
    </clipPath>
    <clipPath id="clip_2">
      <use xlink:href="#path_2" />
    </clipPath>
  </defs>
  <g id="chat-dots-svgrepo-com">
    <path d="M800 0L800 0L800 800L0 800L0 0L800 0Z" id="chat-dots-svgrepo-com" fill="none" stroke="none" />
    <g id="Shape" clip-path="url(#clip_1)">
      <use stroke="none" fill="#1C274C" xlink:href="#path_2" fill-rule="evenodd" />
      <g clip-path="url(#clip_2)">
        <use xlink:href="#path_2" fill="none" stroke="#FFFFFF" stroke-width="2" stroke-dasharray="60 60" />
      </g>
    </g>
    <g id="Group" transform="translate(251.81668 332.3333)" clip-path="url(#clip_1)">
      <path d="M0 1L30 1" id="Line" fill="none" fill-rule="evenodd" stroke="currentColor" stroke-width="67" stroke-linecap="round" stroke-linejoin="round" />
      <path d="M133.033 1L163.033 1" id="Line" fill="none" fill-rule="evenodd" stroke="currentColor" stroke-width="67" stroke-linecap="round" stroke-linejoin="round" />
      <path d="M266.367 1L296.367 1" id="Line" fill="none" fill-rule="evenodd" stroke="currentColor" stroke-width="67" stroke-linecap="round" stroke-linejoin="round" />
    </g>
  </g>
</svg>