<svg width="250px" height="164px" viewBox="0 0 250 164">
  <defs>
    <path d="M250 0L250 0L250 164L0 164L0 0L250 0Z" id="path_1" />
    <path d="M172 5.5C172 2.46243 174.462 0 177.5 0C180.538 0 183 2.46243 183 5.5C183 8.53757 180.538 11 177.5 11C174.462 11 172 8.53757 172 5.5Z" id="path_2" />
    <path d="M28 21.5C28 18.4624 30.4624 16 33.5 16C36.5376 16 39 18.4624 39 21.5C39 24.5376 36.5376 27 33.5 27C30.4624 27 28 24.5376 28 21.5Z" id="path_3" />
    <clipPath id="clip_1">
      <use xlink:href="#path_1" clip-rule="evenodd" fill-rule="evenodd" />
    </clipPath>
    <clipPath id="clip_2">
      <use xlink:href="#path_2" />
    </clipPath>
    <clipPath id="clip_3">
      <use xlink:href="#path_3" />
    </clipPath>
  </defs>
  <g id="Frame">
    <path d="M250 0L250 0L250 164L0 164L0 0L250 0Z" id="Frame" fill="none" stroke="none" />
    <g id="Conversation" transform="translate(64 40)" clip-path="url(#clip_1)">
      <path d="M148 0C154.628 0 160 5.37168 160 12L160 72C160 78.6283 154.628 84 148 84L12 84C5.37168 84 0 78.6283 0 72L0 12C0 5.37168 5.37168 0 12 0L148 0Z" id="Shape" fill="#DFE4E8" stroke="none" />
      <path d="M77 24C78.1047 24 79 24.8953 79 26L79 28C79 29.1047 78.1047 30 77 30L29 30C27.8953 30 27 29.1047 27 28L27 26C27 24.8953 27.8953 24 29 24L77 24Z" id="Shape" fill="#C6CFD4" stroke="none" />
    </g>
    <g id="Conversation_hover" transform="translate(37 80)" clip-path="url(#clip_1)">
      <path d="M148 0C154.628 0 160 5.37168 160 12L160 72C160 78.6283 154.628 84 148 84L12 84C5.37168 84 0 78.6283 0 72L0 12C0 5.37168 5.37168 0 12 0L148 0Z" id="Shape" fill="#FDFDFD" stroke="none" />
      <path d="M70 32C71.1047 32 72 32.8953 72 34L72 36C72 37.1047 71.1047 38 70 38L22 38C20.8953 38 20 37.1047 20 36L20 34C20 32.8953 20.8953 32 22 32L70 32Z" id="Shape" fill="#DFE4E8" stroke="none" />
      <path d="M122 48C123.105 48 124 48.8953 124 50L124 52C124 53.1047 123.105 54 122 54L22 54C20.8953 54 20 53.1047 20 52L20 50C20 48.8953 20.8953 48 22 48L122 48Z" id="Shape" fill="#DFE4E8" stroke="none" />
    </g>
    <g id="Forme" clip-path="url(#clip_1)">
      <path d="M0 74.5C0 72.0147 2.01472 70 4.5 70C6.98528 70 9 72.0147 9 74.5C9 76.9853 6.98528 79 4.5 79C2.01472 79 0 76.9853 0 74.5Z" id="Oval" fill="#AFBCC2" fill-rule="evenodd" stroke="none" />
      <path d="M222 132.5C222 130.015 224.015 128 226.5 128C228.985 128 231 130.015 231 132.5C231 134.985 228.985 137 226.5 137C224.015 137 222 134.985 222 132.5Z" id="Oval" fill="#AFBCC2" fill-rule="evenodd" stroke="none" />
      <g id="Oval">
        <g clip-path="url(#clip_2)">
          <use xlink:href="#path_2" fill="none" stroke="#AFBCC2" strokeWidth="4" />
        </g>
      </g>
      <g id="Oval">
        <g clip-path="url(#clip_3)">
          <use xlink:href="#path_3" fill="none" stroke="#AFBCC2" strokeWidth="4" />
        </g>
      </g>
      <path d="M104.5 8C105.329 8 106 8.67145 106 9.5L106 11L107.5 11C108.329 11 109 11.6714 109 12.5C109 13.3286 108.329 14 107.5 14L106 14L106 15.5C106 16.3286 105.329 17 104.5 17C103.671 17 103 16.3286 103 15.5L103 14L101.5 14C100.671 14 100 13.3286 100 12.5C100 11.6714 100.671 11 101.5 11L103 11L103 9.5C103 8.67145 103.671 8 104.5 8L104.5 8Z" id="Shape" fill="#AFBCC2" fill-rule="evenodd" stroke="none" />
      <path d="M13.5 124C14.3286 124 15 124.671 15 125.5L15 127L16.5 127C17.3286 127 18 127.671 18 128.5C18 129.329 17.3286 130 16.5 130L15 130L15 131.5C15 132.329 14.3286 133 13.5 133C12.6714 133 12 132.329 12 131.5L12 130L10.5 130C9.67145 130 9 129.329 9 128.5C9 127.671 9.67145 127 10.5 127L12 127L12 125.5C12 124.671 12.6714 124 13.5 124L13.5 124Z" id="Shape" fill="#AFBCC2" fill-rule="evenodd" stroke="none" />
      <path d="M245.5 52C246.329 52 247 52.6714 247 53.5L247 55L248.5 55C249.329 55 250 55.6714 250 56.5C250 57.3286 249.329 58 248.5 58L247 58L247 59.5C247 60.3286 246.329 61 245.5 61C244.671 61 244 60.3286 244 59.5L244 58L242.5 58C241.671 58 241 57.3286 241 56.5C241 55.6714 241.671 55 242.5 55L244 55L244 53.5C244 52.6714 244.671 52 245.5 52L245.5 52Z" id="Shape" fill="#AFBCC2" fill-rule="evenodd" stroke="none" />
    </g>
  </g>
</svg>